<svg xmlns="http://www.w3.org/2000/svg" width="48.068" height="48.701" viewBox="0 0 48.068 48.701">
  <g id="class-group" transform="translate(-0.202)">
    <path id="Path_103" data-name="Path 103" d="M39.447,39.526h-4.7v-6.7h3.072l1.322,1.535,1.281-1.535h2.8l0,.1a4.456,4.456,0,0,0-4.356,4.452A4.406,4.406,0,0,0,39.447,39.526Zm.2-2.151a3.684,3.684,0,1,0,3.686-3.686A3.684,3.684,0,0,0,39.649,37.375Zm8.416,4.231H45.1l-1.36,1.631-1.4-1.631H39.087v7.1h9.184ZM35.284,28.837a3.477,3.477,0,1,0,3.477-3.476A3.475,3.475,0,0,0,35.284,28.837Zm-.645-.117a4.164,4.164,0,0,1,4.076-4.159l0-.088H36.094l-1.2,1.438-1.236-1.438h-2.87v6.264h4.394A4.15,4.15,0,0,1,34.638,28.719ZM31.285,20.74a3.249,3.249,0,1,0,3.249-3.249A3.251,3.251,0,0,0,31.285,20.74ZM12.014,32.566H10.653L9.331,34.1,8.048,32.566h-2.8l0,.092a4.423,4.423,0,0,1,3.78,6.605h4.7v-6.7h-1.71ZM1.458,37.109a3.683,3.683,0,1,0,3.683-3.686A3.684,3.684,0,0,0,1.458,37.109Zm6.118,4.232H6.135l-1.4,1.627-1.36-1.627H.409L.2,48.437H9.387v-7.1H7.576ZM6.24,28.57a3.477,3.477,0,1,0,3.477-3.479A3.477,3.477,0,0,0,6.24,28.57ZM16.088,24.2h0l-1.272,0L13.58,25.646l-1.2-1.438H9.765l0,.086A4.131,4.131,0,0,1,13.3,30.467h4.392V24.2h-1.6Zm-5.4-3.731a3.249,3.249,0,1,0,3.249-3.249A3.249,3.249,0,0,0,10.689,20.474ZM41.479,0H9.082V1.137h32.4V0Zm0,14.708H9.082v1.137h32.4V14.708ZM25.193,5.161c1.356,0,2.353,2.926,2.353,4.17a2.436,2.436,0,0,1-1.458,2.246v.493l-.064.038.009.193-1.579.175v-.244a.294.294,0,0,1-.1-.255V11.6a2.422,2.422,0,0,1-1.513-2.27C22.839,8.087,23.832,5.161,25.193,5.161Zm-2.021,4.17a2.083,2.083,0,0,0,1.4,2l.113.038v.586a.722.722,0,0,1,.085,0l.816-.077c.089,0,.139,0,.171-.006V11.35l.107-.041a2.1,2.1,0,0,0,1.347-1.978c0-1.23-.957-3.838-2.022-3.838S23.171,8.1,23.173,9.331Zm2.86,3.1-1.577.174v.117a.4.4,0,0,0,.019.188l.02.067,1.46-.163.07-.023,0-.072a.867.867,0,0,0,.011-.2Zm-1.432.8a.841.841,0,0,0,.655.24h.009c.5,0,.674-.221.728-.41l.033-.121-1.535.169ZM30.674,8.9V8.382H28.55V8.9Zm-10.786,0h2.124V8.382H19.888Zm5.633-6.485H25V4.542h.52Zm1.361,2.614.42.31,1.264-1.709-.42-.31Zm1.073,1.433.163.493,2.019-.669L29.974,5.8Zm-7.586-.175,2.017.672.163-.495L20.535,5.8ZM22,3.636,23.26,5.344l.42-.309L22.416,3.327ZM4.228,6.933A2.765,2.765,0,1,0,1.463,4.168,2.765,2.765,0,0,0,4.228,6.933ZM2.671,20.866l.011.18H3.9V14.86h.7v6.186h1.22l.011-.18,1.1.18h.946V20.024l-1.109-.243H6.576V13.767h.175l.255-4.984,4.94-1.635-.428-1.291L7.011,7.349H5.235L4.182,8.573,3.161,7.349H.93L.778,12.735h.948l.05,1.032h.146v6.015H1.734l-1.111.243v1.021h.946Z" fill="#777"/>
  </g>
</svg>
