<svg xmlns="http://www.w3.org/2000/svg" width="45" height="48" viewBox="0 0 45 48">
  <g id="contact" transform="translate(0 0)">
    <path id="Path_99" data-name="Path 99" d="M146.861,28.26a.714.714,0,0,0,0-1.428h-3.729a.714.714,0,1,0,0,1.428Zm0,0" transform="translate(-129.195 -24.277)" fill="#5b5b5b"/>
    <path id="Path_100" data-name="Path 100" d="M32.819,26.942a.778.778,0,0,0,.031.081,6.261,6.261,0,0,0,11.746,0,.7.7,0,0,0,.029-.075,6.35,6.35,0,0,0-2.276-7.312,3.769,3.769,0,0,0-7.253,0A6.321,6.321,0,0,0,32.622,23.3H29.665V21.051a.7.7,0,1,0-1.4,0V23.3H22.576A6.9,6.9,0,0,0,20.3,18.958l7.97-4.815v3.846a.7.7,0,1,0,1.4,0V15.8h.272a1.637,1.637,0,0,0,1.63-1.641V12.15L33.308,11.1A6.257,6.257,0,0,0,44.6,10.131a.786.786,0,0,0,.029-.075,6.35,6.35,0,0,0-2.277-7.313,3.769,3.769,0,0,0-7.252,0A6.351,6.351,0,0,0,32.734,9.8l-1.169.706V8.625a1.637,1.637,0,0,0-1.63-1.641h-.272V2.578A2.572,2.572,0,0,0,27.1,0H9.878a.7.7,0,0,0,0,1.406H27.1a1.169,1.169,0,0,1,1.164,1.172V4.735H3.3V2.578A1.169,1.169,0,0,1,4.462,1.406H6.837A.7.7,0,0,0,6.837,0H4.462A2.572,2.572,0,0,0,1.9,2.578V6.985H1.629A1.637,1.637,0,0,0,0,8.625v7.406a1.637,1.637,0,0,0,1.63,1.641H1.9v1.594H1.629A1.637,1.637,0,0,0,0,20.906v1.781a1.637,1.637,0,0,0,1.63,1.641H1.9v.75H1.629A1.637,1.637,0,0,0,0,26.719V28.5a1.637,1.637,0,0,0,1.63,1.641H1.9V45.422A2.572,2.572,0,0,0,4.462,48H27.1a2.572,2.572,0,0,0,2.561-2.578V36.341l3.615,2.184a6.364,6.364,0,0,0-.462,5.3.816.816,0,0,0,.031.082,6.262,6.262,0,0,0,11.745,0,.725.725,0,0,0,.03-.078,6.349,6.349,0,0,0-2.277-7.312,3.769,3.769,0,0,0-7.252,0,6.3,6.3,0,0,0-.983.869L29.665,34.7v-10h2.781c0,.029,0,.058,0,.088a6.323,6.323,0,0,0,.375,2.151Zm5.9-14.125a4.888,4.888,0,0,1-4.486-2.979,4.948,4.948,0,0,1,2.757-2.657,3.739,3.739,0,0,0,3.458,0,4.948,4.948,0,0,1,2.757,2.657A4.887,4.887,0,0,1,38.722,12.817ZM43.6,7.794a6.241,6.241,0,0,0-1.941-1.6A3.8,3.8,0,0,0,42.4,4.672a4.918,4.918,0,0,1,1.2,3.122ZM38.722,1.406a2.4,2.4,0,1,1-2.38,2.4,2.391,2.391,0,0,1,2.38-2.4ZM35.045,4.671a3.8,3.8,0,0,0,.739,1.518,6.239,6.239,0,0,0-1.94,1.6A4.927,4.927,0,0,1,35.045,4.671Zm.741,35.3a6.374,6.374,0,0,0-1.943,1.615,4.927,4.927,0,0,1,1.2-3.135,3.807,3.807,0,0,0,.741,1.521Zm2.935,6.625a4.887,4.887,0,0,1-4.486-2.979,4.946,4.946,0,0,1,2.757-2.657,3.74,3.74,0,0,0,3.46,0,4.93,4.93,0,0,1,2.755,2.658,4.888,4.888,0,0,1-4.486,2.978ZM43.6,41.582a6.346,6.346,0,0,0-1.943-1.614,3.8,3.8,0,0,0,.741-1.521,4.922,4.922,0,0,1,1.2,3.134Zm-4.878-6.4a2.4,2.4,0,1,1-2.38,2.4A2.391,2.391,0,0,1,38.722,35.183ZM21.23,24.136c0,.033,0,.066,0,.1a6.939,6.939,0,0,0-2.321-1.962,4.111,4.111,0,0,0,.886-1.847A5.5,5.5,0,0,1,21.23,24.136Zm-10.894,0a5.5,5.5,0,0,1,1.437-3.71,4.114,4.114,0,0,0,.886,1.848,6.94,6.94,0,0,0-2.322,1.962C10.337,24.2,10.336,24.17,10.336,24.136Zm2.755-4.516a2.692,2.692,0,1,1,2.692,2.711A2.7,2.7,0,0,1,13.09,19.621Zm17.079-5.464a.234.234,0,0,1-.233.234h-.272V13.3l.5-.3Zm-.233-5.766a.234.234,0,0,1,.233.234v2.729l-.5.305V8.391ZM1.629,16.266a.234.234,0,0,1-.233-.234V8.625a.234.234,0,0,1,.233-.234H1.9v7.875Zm0,6.656a.234.234,0,0,1-.233-.234V20.906a.234.234,0,0,1,.233-.234H1.9v2.25Zm0,5.812A.234.234,0,0,1,1.4,28.5V26.719a.234.234,0,0,1,.233-.234H1.9v2.25ZM27.1,46.594H4.462A1.169,1.169,0,0,1,3.3,45.422V43.266h24.97v2.156A1.169,1.169,0,0,1,27.1,46.594Zm1.164-4.734H3.3V6.141h24.97V12.5l-8.807,5.321a4.078,4.078,0,0,0-7.611.674,6.914,6.914,0,0,0-2.51,7.958.7.7,0,0,0,.044.119,6.89,6.89,0,0,0,1.159,1.993.7.7,0,0,0,.984.086.706.706,0,0,0,.085-.991,5.488,5.488,0,0,1-.847-1.394,5.51,5.51,0,0,1,3.117-3,4.052,4.052,0,0,0,3.8,0A5.509,5.509,0,0,1,20.8,26.271a5.455,5.455,0,0,1-5.018,3.35,5.391,5.391,0,0,1-1.944-.361.7.7,0,0,0-.9.406.7.7,0,0,0,.4.908,6.793,6.793,0,0,0,5.931-.512l9,5.436Zm0-8-7.8-4.709a6.913,6.913,0,0,0,1.713-2.581.667.667,0,0,0,.031-.083A6.886,6.886,0,0,0,22.6,24.7h5.666Zm10.454-4.152a4.887,4.887,0,0,1-4.486-2.978,4.939,4.939,0,0,1,2.756-2.658,3.74,3.74,0,0,0,3.46,0,4.939,4.939,0,0,1,2.756,2.658,4.887,4.887,0,0,1-4.486,2.978ZM43.6,24.694a6.36,6.36,0,0,0-1.942-1.615,3.807,3.807,0,0,0,.741-1.52A4.91,4.91,0,0,1,43.6,24.694Zm-4.878-6.4a2.4,2.4,0,1,1-2.38,2.4A2.391,2.391,0,0,1,38.721,18.295ZM35.045,21.56a3.808,3.808,0,0,0,.74,1.519,6.368,6.368,0,0,0-1.942,1.615,4.925,4.925,0,0,1,1.2-3.134Zm0,0" transform="translate(0 0)" fill="#5b5b5b"/>
  </g>
</svg>
