<svg xmlns="http://www.w3.org/2000/svg" width="21" height="21" viewBox="0 0 21 21">
  <g id="Group_200" data-name="Group 200" transform="translate(-969.537 -4841)">
    <path id="Path_93" data-name="Path 93" d="M10.5,0A10.5,10.5,0,1,1,0,10.5,10.5,10.5,0,0,1,10.5,0Z" transform="translate(969.537 4841)" fill="#fff" opacity="0.7"/>
    <path id="Facebook" d="M115.562,1.8v1.28H114.7V4.648h.866V9.3h1.78V4.648h1.194s.112-.751.166-1.572h-1.354V2.006a.435.435,0,0,1,.386-.375h.97V0h-1.318A1.645,1.645,0,0,0,115.562,1.8Z" transform="translate(863.153 4846.687)" fill="#7b7171"/>
    <path id="Path_102" data-name="Path 102" d="M10.5,0A10.5,10.5,0,1,1,0,10.5,10.5,10.5,0,0,1,10.5,0Z" transform="translate(969.537 4841)" fill="#fff" opacity="0.7"/>
  </g>
</svg>
