<svg xmlns="http://www.w3.org/2000/svg" width="108.342" height="102.435" viewBox="0 0 108.342 102.435">
  <g id="Group_194" data-name="Group 194" transform="translate(-628.539 -2579.565)">
    <g id="Path_94" data-name="Path 94" transform="translate(650.688 2593.348) rotate(31)" fill="none">
      <path d="M20.833,0h79.723V43H20.833S0,32.391,0,21.64,20.833,0,20.833,0Z" stroke="none"/>
      <path d="M 21.59554290771484 2.999996185302734 C 20.0902099609375 3.835865020751953 16.11100769042969 6.139598846435547 12.19761657714844 9.2037353515625 C 6.266448974609375 13.84775161743164 3.000007629394531 18.26438331604004 3.000007629394531 21.64002799987793 C 3.000007629394531 25.00555229187012 6.259109497070313 29.36782836914063 12.17697143554688 33.92330551147461 C 16.09715270996094 36.94098663330078 20.08395385742188 39.19435882568359 21.57891082763672 40.00424575805664 L 97.55581665039063 40.00424575805664 L 97.55581665039063 2.999996185302734 L 21.59554290771484 2.999996185302734 M 20.83257293701172 -3.814697265625e-06 L 100.5558166503906 -3.814697265625e-06 L 100.5558166503906 43.00424575805664 L 20.83257293701172 43.00424575805664 C 20.83257293701172 43.00424575805664 7.62939453125e-06 32.39109039306641 7.62939453125e-06 21.64002799987793 C 7.62939453125e-06 10.88896560668945 20.83257293701172 -3.814697265625e-06 20.83257293701172 -3.814697265625e-06 Z" stroke="none" fill="#e4e4e4"/>
    </g>
    <g id="Ellipse_17" data-name="Ellipse 17" transform="translate(648.138 2614.921)" fill="#e4e4e4" stroke="#e4e4e4" stroke-width="3">
      <circle cx="4.797" cy="4.797" r="4.797" stroke="none"/>
      <circle cx="4.797" cy="4.797" r="3.297" fill="none"/>
    </g>
    <g id="Path_95" data-name="Path 95" transform="translate(637.625 2582.046) rotate(-14)" fill="#e4e4e4">
      <path d="M 5.127428531646729 40.15895080566406 C 5.00180196762085 40.07547760009766 4.648854732513428 39.77534103393555 4.184398651123047 38.83209609985352 C 3.683898448944092 37.81564712524414 3.211288452148438 36.3600959777832 2.817678451538086 34.62279891967773 C 1.967958569526672 30.87239646911621 1.499998569488525 25.97775650024414 1.499998569488525 20.84051704406738 C 1.499998569488525 15.70327663421631 1.967958569526672 10.80863666534424 2.817678451538086 7.058237075805664 C 3.211288452148438 5.320937156677246 3.683898448944092 3.865386962890625 4.184398651123047 2.848937034606934 C 4.648854732513428 1.905691981315613 5.00180196762085 1.605556845664978 5.127428531646729 1.522082805633545 C 5.253055095672607 1.605556845664978 5.606002330780029 1.905691981315613 6.07045841217041 2.848937034606934 C 6.570958614349365 3.865386962890625 7.04356861114502 5.320937156677246 7.437178611755371 7.058237075805664 C 8.286898612976074 10.80863666534424 8.75485897064209 15.70327663421631 8.75485897064209 20.84051704406738 C 8.75485897064209 25.97775650024414 8.286898612976074 30.87239646911621 7.437178611755371 34.62279891967773 C 7.04356861114502 36.3600959777832 6.570958614349365 37.81564712524414 6.07045841217041 38.83209609985352 C 5.606002330780029 39.77534103393555 5.253055095672607 40.07547760009766 5.127428531646729 40.15895080566406 Z" stroke="none"/>
      <path d="M 5.127428531646729 4.4609375 C 4.794421195983887 5.351470947265625 4.41937255859375 6.620704650878906 4.073818683624268 8.365695953369141 C 3.381358623504639 11.86252784729004 2.999998569488525 16.29283714294434 2.999998569488525 20.84051704406738 C 2.999998569488525 25.38819694519043 3.381358623504639 29.81850814819336 4.073818683624268 33.31533813476563 C 4.41937255859375 35.06032943725586 4.794421195983887 36.32956314086914 5.127428531646729 37.22009658813477 C 5.46043586730957 36.32956314086914 5.835484504699707 35.06032943725586 6.181038379669189 33.31533813476563 C 6.873498439788818 29.81850814819336 7.254858493804932 25.38819694519043 7.254858493804932 20.84051704406738 C 7.254858493804932 16.29283714294434 6.873498439788818 11.86252784729004 6.181038379669189 8.365695953369141 C 5.835484504699707 6.620704650878906 5.46043586730957 5.351470947265625 5.127428531646729 4.4609375 M 5.127428531646729 -3.814697265625e-06 C 7.959228515625 -3.814697265625e-06 10.25485897064209 9.330615997314453 10.25485897064209 20.84051704406738 C 10.25485897064209 32.35041809082031 7.959228515625 41.68103790283203 5.127428531646729 41.68103790283203 C 2.295628547668457 41.68103790283203 -1.9073486328125e-06 32.35041809082031 -1.9073486328125e-06 20.84051704406738 C -1.9073486328125e-06 9.330615997314453 2.295628547668457 -3.814697265625e-06 5.127428531646729 -3.814697265625e-06 Z" stroke="none" fill="#e4e4e4"/>
    </g>
    <text id="free" transform="translate(681.092 2644.746) rotate(30)" fill="#e4e4e4" font-size="22" font-family="SegoeUI, Segoe UI"><tspan x="-20.7" y="0">Free</tspan></text>
  </g>
</svg>
