<svg xmlns="http://www.w3.org/2000/svg" width="62.402" height="43.604" viewBox="0 0 62.402 43.604">
  <g id="Group_203" data-name="Group 203" transform="translate(0 0)">
    <path id="Path_104" data-name="Path 104" d="M89.39,46.024c2.234,0,4.048-2.591,4.048-4.825a4.047,4.047,0,1,0-8.094,0C85.343,43.434,87.155,46.024,89.39,46.024Z" transform="translate(-58.181 -34.725)" fill="#777"/>
    <path id="Path_105" data-name="Path 105" d="M76.094,73.421l0-3.284.323-.095v3.379h3.438l.842-6.554h-.014l-.379-.764a25.262,25.262,0,0,0-6.353,1.363c-.016,0-.021.017-.036.02a1.627,1.627,0,0,0-.308.189,1.428,1.428,0,0,0-.218.146,1.787,1.787,0,0,0-.185.253,1.629,1.629,0,0,0-.164.244,1.909,1.909,0,0,0-.069.268,1.444,1.444,0,0,0-.068.34c0,.015-.009.027-.009.042l-.008,4.5a2.816,2.816,0,0,1,.465-.048Z" transform="translate(-49.691 -54.463)" fill="#777"/>
    <path id="Path_106" data-name="Path 106" d="M103.69,67.722l.3-.121.273-.516a23.2,23.2,0,0,0-5.182-.983l-.378.764H98.7l.84,6.554h1.371l1.271-2.395-.07-.32A2.6,2.6,0,0,1,103.69,67.722Z" transform="translate(-67.285 -54.462)" fill="#777"/>
    <path id="Path_107" data-name="Path 107" d="M155.513,39.034c2.4,0,4.337-2.777,4.337-5.168a4.335,4.335,0,1,0-8.67,0C151.181,36.257,153.122,39.034,155.513,39.034Z" transform="translate(-103.064 -29.53)" fill="#777"/>
    <path id="Path_108" data-name="Path 108" d="M134.8,71.1a1.5,1.5,0,0,0-.239.048l.143-.158a1.726,1.726,0,0,0,.44-1.149l-.015-6.226c0-.016-.009-.028-.009-.043a5.858,5.858,0,0,0-.147-.652,1.5,1.5,0,0,0-.176-.262,1.747,1.747,0,0,0-.2-.271,1.569,1.569,0,0,0-.233-.155,1.586,1.586,0,0,0-.331-.2c-.014-.005-.022-.018-.037-.022a27.167,27.167,0,0,0-6.8-1.459l-.407.817h-.013l1.155,8.99-1.374,2.395-1.37-2.395,1.15-8.99h-.01l-.406-.815a26.993,26.993,0,0,0-6.768,1.443l-6.787,2.263.409-.765a.34.34,0,0,0-.143-.461.344.344,0,0,0-.465.141l-.743,1.4-.495.165a1.712,1.712,0,0,0-1.083,2.168,1.8,1.8,0,0,0,.171.327l-1.267,2.394a.343.343,0,0,0,.142.464.344.344,0,0,0,.463-.143l1.157-2.18a1.712,1.712,0,0,0,.968.3,1.739,1.739,0,0,0,.544-.087l8.225-2.743c.008,0,.012-.009.018-.012s.015,0,.022,0,.606-.214,1.478-.462v11.2l-4.479.9a2.058,2.058,0,0,0-1.648,1.905L114.907,92.1a2.057,2.057,0,0,0,1.944,2.166c.036,0,.073,0,.111,0a2.057,2.057,0,0,0,2.051-1.943l.642-11.749,1.758-.355V92.217a1.714,1.714,0,0,0,1.716,1.714H134.8a1.716,1.716,0,0,0,1.713-1.714V72.808A1.713,1.713,0,0,0,134.8,71.1Zm-3.44-6.333.343.1.007,4.319-.351.392V64.762Zm1.726,25.743h-8.24V81.423l8.24-1.936Zm0-17.7v3.156l-1.727.405V74.7l1.733-1.926C133.089,72.789,133.083,72.8,133.083,72.809Z" transform="translate(-74.108 -50.674)" fill="#777"/>
    <path id="Path_109" data-name="Path 109" d="M21.99,39.034c2.391,0,4.334-2.777,4.334-5.168a4.335,4.335,0,1,0-8.67,0C17.654,36.257,19.6,39.034,21.99,39.034Z" transform="translate(-12.035 -29.53)" fill="#777"/>
    <path id="Path_110" data-name="Path 110" d="M19.23,76.861l-4.478-.9V64.76c.122.036.236.068.342.1v6.977a1.72,1.72,0,0,0,.947,1.534l2.743,1.37a1.744,1.744,0,0,0,.764.183,1.716,1.716,0,0,0,.765-3.251l-1.792-.9V63.61c0-.017-.01-.029-.01-.047a1.718,1.718,0,0,0-.074-.367,2.077,2.077,0,0,0-.071-.283,1.64,1.64,0,0,0-.18-.267,1.667,1.667,0,0,0-.2-.266,1.6,1.6,0,0,0-.236-.16,1.659,1.659,0,0,0-.327-.2C17.416,62.015,17.4,62,17.39,62a27.183,27.183,0,0,0-6.805-1.459l-.407.817h-.011l1.152,8.99L9.948,72.742,8.575,70.348l1.154-8.99H9.716l-.408-.817A27.068,27.068,0,0,0,2.506,62c-.017,0-.024.016-.038.022a1.667,1.667,0,0,0-.332.2,1.676,1.676,0,0,0-.234.155,1.784,1.784,0,0,0-.2.272,1.626,1.626,0,0,0-.177.262,1.861,1.861,0,0,0-.075.286,1.8,1.8,0,0,0-.073.366c0,.015-.009.029-.009.043l0,6.228a1.71,1.71,0,0,0,.439,1.149l.143.158a1.476,1.476,0,0,0-.239-.048A1.716,1.716,0,0,0,0,72.807v19.41a1.716,1.716,0,0,0,1.714,1.716H13.38a1.715,1.715,0,0,0,1.714-1.716V80.228l1.761.353.64,11.749a2.058,2.058,0,0,0,2.053,1.945c.037,0,.074,0,.112,0A2.058,2.058,0,0,0,21.6,92.106L20.874,78.77A2.052,2.052,0,0,0,19.23,76.861Zm-14.42-12,.344-.1v4.814L4.8,69.181Zm.345,9.84v1.666l-1.727-.405V72.807c0-.01-.007-.021-.007-.032Zm6.513,15.8H3.429V79.484l8.239,1.936V90.5Z" transform="translate(0 -50.671)" fill="#777"/>
    <path id="Path_111" data-name="Path 111" d="M85.03,91.9H69.947a2.055,2.055,0,1,0,0,4.111h.382v17.583a1.713,1.713,0,0,0,1.714,1.714H82.937a1.715,1.715,0,0,0,1.713-1.714V96.008h.379a2.055,2.055,0,0,0,0-4.111Z" transform="translate(-46.283 -72.047)" fill="#777"/>
  </g>
</svg>
