<svg xmlns="http://www.w3.org/2000/svg" width="76" height="80" viewBox="0 0 76 80">
  <g id="Group_195" data-name="Group 195" transform="translate(-979 -2590)">
    <path id="Path_75" data-name="Path 75" d="M39.294,68.379a1.289,1.289,0,0,0,1.007.454c.6-.027.927-.487,1.264-.91l.9-1.126,2.339-2.923,1.284-1.6a1.223,1.223,0,0,0-1.909-1.527l-2.713,3.391v-.182A18.358,18.358,0,0,1,59.8,45.613a1.222,1.222,0,1,0,0-2.445A20.806,20.806,0,0,0,39.022,63.951v.183L36.31,60.743A1.222,1.222,0,1,0,34.4,62.27L35.543,63.7l2.215,2.769c.494.618.971,1.252,1.483,1.853l.054.06Zm0,0" transform="translate(945.757 2551.944)" fill="#e4e4e4"/>
    <path id="Path_76" data-name="Path 76" d="M311.854,274.117a1.272,1.272,0,0,0-.988-.454c-.754.026-1.187.789-1.613,1.321l-1.473,1.841q-1.3,1.633-2.61,3.263l-.106.132a1.222,1.222,0,1,0,1.908,1.527l2.712-3.391v.183a18.358,18.358,0,0,1-18.338,18.338,1.222,1.222,0,0,0,0,2.445,20.806,20.806,0,0,0,20.783-20.782v-.183l2.712,3.391a1.222,1.222,0,0,0,1.909-1.527l-2-2.494q-1.344-1.681-2.69-3.362c-.068-.086-.139-.17-.214-.247Zm0,0" transform="translate(737.98 2368.865)" fill="#e4e4e4"/>
    <path id="coins" d="M31.778,12.535c-.052-.906-1.13-1.615-3.286-2.155a1.194,1.194,0,0,0,.114-.5V6.178H28.6C28.407,3.091,15.756,3,14.3,3S.2,3.091.009,6.178H0v.069H0V9.886c0,1.006,1.3,1.794,3.234,2.381a1.162,1.162,0,0,0-.048.269H3.178V12.6h0v3.632C1.1,16.773.057,17.471.005,18.362H0v.069H0V22.07c0,.7.634,1.3,1.668,1.791a1.167,1.167,0,0,0-.07.329H1.589v.069h0V27.9c0,1.762,3.971,2.856,8.379,3.366a.486.486,0,0,0,.1.02c.01,0,.019-.005.029-.006.85.1,1.713.171,2.568.224a.438.438,0,0,0,.052.011c.01,0,.018-.005.028-.006,1.085.066,2.152.1,3.151.1s2.066-.033,3.151-.1c.01,0,.018.006.028.006s.034-.009.052-.011c.854-.054,1.718-.128,2.568-.224.01,0,.019.005.029.005a.486.486,0,0,0,.1-.02c4.408-.511,8.375-1.605,8.379-3.368V24.189h-.008C30.149,23.54,29.6,23,28.5,22.545a1.184,1.184,0,0,0,.1-.477V18.606c1.9-.585,3.176-1.367,3.178-2.365V12.535Zm-4.289,9.705-.181.158a4.739,4.739,0,0,1-1.351.731V20.6a7.883,7.883,0,0,0,1.589-.729v2.192A.337.337,0,0,1,27.489,22.241ZM15.641,24.7l-.233,0c-.189,0-.383,0-.575.006V22.067l.437-.006.084,0q.8-.015,1.6-.051v2.645l-.342.016C16.291,24.684,15.969,24.694,15.641,24.7Zm-2.313.007q-.364-.006-.724-.017l-.089,0q-.433-.014-.86-.035V22.009q.8.037,1.6.051l.084,0,.437.006v2.648l-.308,0ZM3.76,23.5l-.051-.015V20.928c.495.133,1.027.255,1.589.366V23.88q-.729-.155-1.343-.323Zm11.166,4.387.437.006v2.648q-1.1-.01-2.119-.061V27.837q.8.037,1.6.051Zm2.018,0q.8-.015,1.6-.051v2.645q-1.02.05-2.119.061V27.894l.437-.006Zm4.246-.239v2.631q-.764.08-1.589.139V27.776C20.137,27.741,20.668,27.7,21.189,27.648Zm1.059-.114q.819-.1,1.589-.224v2.6q-.749.132-1.589.243ZM24.9,27.12c.563-.111,1.094-.233,1.589-.366v2.559c-.472.136-1,.268-1.589.393Zm-18.011,0v2.586c-.586-.124-1.117-.256-1.589-.393V26.754C5.792,26.888,6.324,27.01,6.887,27.12Zm1.059.19q.769.125,1.589.224v2.62q-.84-.11-1.589-.243Zm2.649.337c.521.05,1.052.093,1.589.129v2.642q-.826-.058-1.589-.139ZM9.28,24.48l-.161-.016-.114-.012v-2.63c.521.05,1.052.093,1.589.129v2.64C10.15,24.558,9.71,24.522,9.28,24.48ZM7.946,21.706v2.62q-.84-.11-1.589-.243v-2.6Q7.126,21.607,7.946,21.706Zm10.418,2.858-.353.026V21.949c.537-.035,1.068-.078,1.589-.129v2.631c-.327.034-.662.067-1.006.095Zm2.3-.238v-2.62q.819-.1,1.589-.224v2.6Q21.5,24.215,20.66,24.326Zm2.649-3.033c.563-.111,1.094-.233,1.589-.366v2.559c-.472.136-1,.268-1.589.393Zm-7.244-2.42c-.4-.01-.788-.025-1.17-.044l-.061,0V16.182q.8.037,1.6.051l.084,0,.437.006v2.645c-.258,0-.518,0-.77-.01ZM3.708,11.3V8.744C4.2,8.877,4.735,9,5.3,9.11V11.7l-.2-.041c-.282-.062-.557-.127-.82-.195C4.082,11.408,3.891,11.356,3.708,11.3Zm9.628-1.426.437.006v2.645c-.713-.007-1.422-.025-2.119-.06V9.826q.8.037,1.6.051Zm2.018,0q.8-.015,1.6-.051v2.643l-.267.015h-.023c-.355.016-.718.028-1.085.036l-.172,0c-.189,0-.381,0-.573.006V9.884l.437-.006Zm12.071.266-.015,0-.193.15a5.152,5.152,0,0,1-1.26.651V8.42a7.883,7.883,0,0,0,1.589-.729V9.883A.416.416,0,0,1,27.425,10.142Zm-6.765,2V9.522q.819-.1,1.589-.224v2.6C21.747,11.984,21.218,12.066,20.66,12.139Zm2.649-.448V9.11C23.871,9,24.4,8.877,24.9,8.744V11.3C24.423,11.436,23.888,11.567,23.308,11.691ZM19.6,9.637v2.627q-.768.081-1.589.14V9.765C18.548,9.73,19.079,9.687,19.6,9.637ZM9.006,12.265V9.637c.521.05,1.052.093,1.589.129V12.4C10.055,12.364,9.524,12.32,9.006,12.265ZM7.946,9.522V12.14c-.1-.014-.214-.025-.318-.039l-.2-.029q-.459-.066-.9-.14L6.357,11.9V9.3Q7.126,9.423,7.946,9.522Zm5.7,9.232-.215-.016q-.509-.04-.993-.088l-.208-.021-.042,0V15.993c.521.05,1.052.093,1.589.129v2.64Zm-3.5-.4c-.21-.033-.407-.069-.607-.1v-2.6q.769.125,1.589.224V18.5c-.324-.043-.642-.087-.946-.135ZM8.476,15.466v2.581q-.878-.188-1.589-.4V15.1C7.381,15.234,7.913,15.356,8.476,15.466Zm-2.649-.69v2.517a3.3,3.3,0,0,1-1.545-.942l-.035-.059a.335.335,0,0,1-.009-.05V14.048A7.883,7.883,0,0,0,5.827,14.777Zm12.705,1.456q.8-.015,1.6-.051v2.642c-.7.034-1.4.054-2.119.061V16.241l.437-.006Zm6.846,2.033c-.233.04-.467.08-.708.117-.138.021-.28.041-.422.061s-.273.035-.409.053V15.879q.819-.1,1.589-.224v2.6Zm-3.587.452c-.2.016-.4.027-.6.041V16.122c.537-.035,1.068-.078,1.589-.129v2.628c-.308.032-.615.065-.931.091Zm6.054-.993c-.264.074-.543.142-.828.21-.132.031-.266.061-.4.091l-.126.026V15.467c.563-.111,1.094-.233,1.589-.366V17.66Zm2.874-5.155c-.049.36-.864.838-2.319,1.288h0a35.557,35.557,0,0,1-8.523,1.273c-.19.008-.38.016-.574.022l-.479.014c-.439.01-.884.016-1.342.016s-.9-.007-1.342-.017c-.161,0-.32-.009-.479-.014-.194-.006-.384-.014-.574-.022a35.553,35.553,0,0,1-8.523-1.273h0c-1.444-.446-2.257-.921-2.318-1.279a.124.124,0,0,1,.009-.031l.113.025c.207.049.42.1.636.142,1.053.227,2.219.413,3.462.555l.011,0h0c.847.1,1.725.172,2.626.226.007,0,.013,0,.02,0l.01,0q.973.057,1.972.081c.407.01.807.015,1.2.015.278,0,.563,0,.851-.008a40.565,40.565,0,0,0,9.9-1.226c.114-.032.226-.066.336-.1l.2-.061c.192-.061.376-.124.553-.19l.091-.035c.15-.057.294-.115.432-.175l.119-.052c.147-.066.289-.134.42-.2.059-.031.111-.064.166-.1s.127-.074.186-.111c.033-.021.073-.041.1-.063C30.033,11.788,30.658,12.35,30.719,12.57ZM14.3,4.059c8.735,0,13.153,1.375,13.235,2.165-.064.358-.877.831-2.317,1.276h0A35.557,35.557,0,0,1,16.7,8.774c-.19.008-.38.016-.574.022l-.479.014c-.439.01-.884.017-1.342.017s-.9-.007-1.342-.017c-.161,0-.32-.009-.479-.014-.194-.006-.384-.014-.574-.022A35.553,35.553,0,0,1,3.384,7.5h0c-1.44-.445-2.253-.918-2.317-1.276C1.15,5.435,5.568,4.059,14.3,4.059ZM1.059,9.884V7.691a7.883,7.883,0,0,0,1.589.729v2.536C1.618,10.57,1.061,10.183,1.059,9.884Zm2.566,7.331c.008.008.02.016.028.024a9.012,9.012,0,0,0,4.1,1.736l.132.03q.206.046.417.09a40.855,40.855,0,0,0,6,.761H14.3q1.076.063,2.2.084c.332.007.658.011.977.011.366,0,.741,0,1.122-.013.693-.014,1.376-.043,2.049-.082l.007,0,.013,0a40.971,40.971,0,0,0,6.115-.783,9.6,9.6,0,0,1-1.567.612h0a36.555,36.555,0,0,1-9.154,1.3l-.358.011L15.316,21c-.333.005-.669.01-1.013.01-.459,0-.9-.007-1.342-.017-.161,0-.32-.009-.479-.014-.194-.006-.384-.014-.574-.022a35.553,35.553,0,0,1-8.523-1.273h0c-1.457-.45-2.272-.929-2.319-1.289C1.124,18.2,1.66,17.7,3.626,17.215ZM1.059,22.068V19.875a7.883,7.883,0,0,0,1.589.729V23.13l-.3-.118-.006.006C1.508,22.674,1.061,22.335,1.059,22.068ZM2.649,27.9V25.7a7.883,7.883,0,0,0,1.589.729v2.536C3.208,28.581,2.65,28.194,2.649,27.9Zm24.9,1.072V26.431a7.883,7.883,0,0,0,1.589-.729v2.192C29.135,28.193,28.577,28.58,27.546,28.967Zm1.582-4.737c-.058.359-.871.834-2.318,1.281h0a35.557,35.557,0,0,1-8.523,1.273c-.19.008-.38.016-.574.022l-.479.014c-.439.01-.884.016-1.342.016s-.9-.007-1.343-.017c-.159,0-.317-.009-.474-.014-.2-.006-.386-.014-.577-.022a35.557,35.557,0,0,1-8.523-1.273h0c-1.4-.433-2.211-.893-2.312-1.248.158.055.322.109.489.161l.051.015q.215.066.439.128l.172.047.259.067a38.647,38.647,0,0,0,7.051,1h0c.821.049,1.66.079,2.507.089.226,0,.45.006.67.006.292,0,.591,0,.893-.009.773-.013,1.536-.041,2.282-.086h0l.007,0c.908-.055,1.788-.132,2.633-.229l.009,0c.012,0,.021-.006.033-.007.941-.109,1.833-.242,2.661-.4.171-.031.339-.064.5-.1l.111-.023a14.234,14.234,0,0,0,3.847-1.252c.051-.028.1-.056.147-.084s.115-.07.17-.106.11-.065.156-.1C28.806,23.764,29.094,24.1,29.129,24.23Zm.007-6.917V14.777a7.883,7.883,0,0,0,1.589-.729V16.24C30.724,16.538,30.166,16.926,29.135,17.313Z" transform="translate(979 2638.394)" fill="#e4e4e4"/>
    <path id="Path_77" data-name="Path 77" d="M124.292,49.153a9.938,9.938,0,0,0-12.329,14.964.55.55,0,0,0,.868-.676A8.838,8.838,0,0,1,123.8,50.135a.55.55,0,1,0,.5-.982Z" transform="translate(913.807 2545.196)" fill="#e4e4e4"/>
    <path id="Path_78" data-name="Path 78" d="M178.286,124.109a.55.55,0,0,0-.982.5A8.838,8.838,0,0,1,164,135.568a.55.55,0,1,0-.675.868,9.938,9.938,0,0,0,14.965-12.327Z" transform="translate(867.33 2474.632)" fill="#e4e4e4"/>
    <path id="Path_79" data-name="Path 79" d="M340.439,83.621c-.136-.154-.279-.306-.425-.452s-.3-.289-.452-.425a.55.55,0,0,0-.728.824c.137.121.273.249.4.379s.258.266.379.4a.55.55,0,0,0,.824-.728Z" transform="translate(703.756 2513.025)" fill="#e4e4e4"/>
    <path id="Path_80" data-name="Path 80" d="M88.082,14.2a1.866,1.866,0,0,0,0-1.95l-.724-1.186a.774.774,0,0,1-.1-.523l.216-1.37a1.865,1.865,0,0,0-.749-1.806L85.6,6.553a.774.774,0,0,1-.3-.443L84.978,4.76A1.866,1.866,0,0,0,83.6,3.38l-1.35-.327a.774.774,0,0,1-.443-.3l-.816-1.122A1.865,1.865,0,0,0,79.183.887L77.812,1.1A.774.774,0,0,1,77.29,1L76.1.275a1.866,1.866,0,0,0-1.95,0L72.966,1a.774.774,0,0,1-.523.1L71.073.886a1.866,1.866,0,0,0-1.806.749l-.816,1.121a.774.774,0,0,1-.444.3l-1.349.327a1.866,1.866,0,0,0-1.38,1.38l-.327,1.35a.774.774,0,0,1-.3.443l-1.122.816a1.865,1.865,0,0,0-.749,1.806L63,10.545a.774.774,0,0,1-.1.523l-.724,1.187a1.866,1.866,0,0,0,0,1.95l.724,1.187a.774.774,0,0,1,.1.523l-.216,1.37a1.865,1.865,0,0,0,.749,1.806l1.121.816a.774.774,0,0,1,.3.443l.327,1.349a1.866,1.866,0,0,0,1.38,1.38l.564.136-3.814,8.507a.55.55,0,0,0,.567.771l3.069-.367,1.768,2.535a.55.55,0,0,0,.451.235l.052,0a.55.55,0,0,0,.45-.323l3.895-8.689.494.3a1.866,1.866,0,0,0,1.95,0l.511-.312,3.9,8.7a.55.55,0,0,0,.45.323l.052,0a.55.55,0,0,0,.451-.235l1.768-2.535,3.069.367a.55.55,0,0,0,.567-.771l-3.816-8.512.542-.131a1.866,1.866,0,0,0,1.38-1.38l.327-1.35a.774.774,0,0,1,.3-.443l1.122-.816a1.865,1.865,0,0,0,.749-1.806l-.216-1.371a.774.774,0,0,1,.1-.523ZM69.158,33.236l-1.4-2.009A.55.55,0,0,0,67.24,31l-2.432.291,3.475-7.751a.769.769,0,0,1,.167.167l.816,1.122a1.89,1.89,0,0,0,.26.289L67.7,29.193a.55.55,0,1,0,1,.45l1.822-4.065a1.882,1.882,0,0,0,.549,0l1.371-.216a.772.772,0,0,1,.246,0Zm16.312-1.95L83.038,31a.55.55,0,0,0-.516.231l-1.4,2.009-3.533-7.88a.774.774,0,0,1,.224,0l1.37.216a1.884,1.884,0,0,0,.571,0l1.824,4.069a.55.55,0,1,0,1-.45l-1.836-4.1a1.893,1.893,0,0,0,.243-.274L81.8,23.7a.772.772,0,0,1,.185-.18Zm1.674-17.654-.724,1.187a1.876,1.876,0,0,0-.251,1.266l.216,1.371a.77.77,0,0,1-.309.746l-1.122.816a1.875,1.875,0,0,0-.719,1.074l-.327,1.35a.77.77,0,0,1-.57.57l-1.35.327a1.875,1.875,0,0,0-1.074.719L80.1,24.177a.77.77,0,0,1-.746.309l-1.37-.216a1.876,1.876,0,0,0-1.266.251l-1.186.724a.771.771,0,0,1-.805,0l-1.187-.724a1.875,1.875,0,0,0-1.266-.251l-1.371.216a.77.77,0,0,1-.746-.309l-.816-1.122a1.875,1.875,0,0,0-1.074-.719l-1.35-.327a.77.77,0,0,1-.57-.57l-.327-1.349a1.875,1.875,0,0,0-.719-1.074L64.18,18.2a.77.77,0,0,1-.309-.746l.216-1.37a1.875,1.875,0,0,0-.251-1.266l-.724-1.187a.77.77,0,0,1,0-.805l.724-1.187a1.875,1.875,0,0,0,.251-1.266L63.871,9a.77.77,0,0,1,.309-.746L65.3,7.442a1.875,1.875,0,0,0,.719-1.074l.327-1.35a.77.77,0,0,1,.57-.57l1.35-.327A1.875,1.875,0,0,0,69.341,3.4l.816-1.121a.77.77,0,0,1,.746-.309l1.37.216a1.875,1.875,0,0,0,1.266-.251l1.186-.724a.771.771,0,0,1,.805,0l1.187.724a1.874,1.874,0,0,0,1.266.251l1.371-.216a.771.771,0,0,1,.746.309L80.915,3.4a1.875,1.875,0,0,0,1.074.719l1.35.327a.77.77,0,0,1,.57.57l.327,1.349a1.875,1.875,0,0,0,.719,1.074l1.121.816A.77.77,0,0,1,86.384,9l-.216,1.37a1.875,1.875,0,0,0,.251,1.266l.723,1.187A.77.77,0,0,1,87.143,13.632Z" transform="translate(961.643 2590)" fill="#e4e4e4"/>
    <path id="Path_81" data-name="Path 81" d="M173.77,105.074a.984.984,0,0,0-.828-.68L169.632,104l-1.4-3.026a.994.994,0,0,0-1.8,0l-1.4,3.026-3.309.392a.994.994,0,0,0-.558,1.716l2.447,2.263-.649,3.268a1,1,0,0,0,.973,1.189.994.994,0,0,0,.487-.128l2.908-1.628,2.908,1.628a.994.994,0,0,0,1.46-1.061l-.649-3.268,2.447-2.263A.984.984,0,0,0,173.77,105.074Zm-3.69,2.7a.55.55,0,0,0-.166.511l.665,3.345-2.976-1.666a.55.55,0,0,0-.537,0l-2.976,1.666.665-3.345a.55.55,0,0,0-.166-.511l-2.5-2.315,3.387-.4a.55.55,0,0,0,.435-.316l1.428-3.1,1.428,3.1a.55.55,0,0,0,.435.316l3.386.4Z" transform="translate(866.804 2496.445)" fill="#e4e4e4"/>
    <path id="Path_75-2" data-name="Path 75" d="M39.294,68.379a1.289,1.289,0,0,0,1.007.454c.6-.027.927-.487,1.264-.91l.9-1.126,2.339-2.923,1.284-1.6a1.223,1.223,0,0,0-1.909-1.527l-2.713,3.391v-.182A18.358,18.358,0,0,1,59.8,45.613a1.222,1.222,0,1,0,0-2.445A20.806,20.806,0,0,0,39.022,63.951v.183L36.31,60.743A1.222,1.222,0,1,0,34.4,62.27L35.543,63.7l2.215,2.769c.494.618.971,1.252,1.483,1.853l.054.06Zm0,0" transform="translate(945.757 2551.944)" fill="#e4e4e4"/>
    <path id="Path_76-2" data-name="Path 76" d="M311.854,274.117a1.272,1.272,0,0,0-.988-.454c-.754.026-1.187.789-1.613,1.321l-1.473,1.841q-1.3,1.633-2.61,3.263l-.106.132a1.222,1.222,0,1,0,1.908,1.527l2.712-3.391v.183a18.358,18.358,0,0,1-18.338,18.338,1.222,1.222,0,0,0,0,2.445,20.806,20.806,0,0,0,20.783-20.782v-.183l2.712,3.391a1.222,1.222,0,0,0,1.909-1.527l-2-2.494q-1.344-1.681-2.69-3.362c-.068-.086-.139-.17-.214-.247Zm0,0" transform="translate(737.98 2368.865)" fill="#e4e4e4"/>
    <path id="coins-2" data-name="coins" d="M31.778,12.535c-.052-.906-1.13-1.615-3.286-2.155a1.194,1.194,0,0,0,.114-.5V6.178H28.6C28.407,3.091,15.756,3,14.3,3S.2,3.091.009,6.178H0v.069H0V9.886c0,1.006,1.3,1.794,3.234,2.381a1.162,1.162,0,0,0-.048.269H3.178V12.6h0v3.632C1.1,16.773.057,17.471.005,18.362H0v.069H0V22.07c0,.7.634,1.3,1.668,1.791a1.167,1.167,0,0,0-.07.329H1.589v.069h0V27.9c0,1.762,3.971,2.856,8.379,3.366a.486.486,0,0,0,.1.02c.01,0,.019-.005.029-.006.85.1,1.713.171,2.568.224a.438.438,0,0,0,.052.011c.01,0,.018-.005.028-.006,1.085.066,2.152.1,3.151.1s2.066-.033,3.151-.1c.01,0,.018.006.028.006s.034-.009.052-.011c.854-.054,1.718-.128,2.568-.224.01,0,.019.005.029.005a.486.486,0,0,0,.1-.02c4.408-.511,8.375-1.605,8.379-3.368V24.189h-.008C30.149,23.54,29.6,23,28.5,22.545a1.184,1.184,0,0,0,.1-.477V18.606c1.9-.585,3.176-1.367,3.178-2.365V12.535Zm-4.289,9.705-.181.158a4.739,4.739,0,0,1-1.351.731V20.6a7.883,7.883,0,0,0,1.589-.729v2.192A.337.337,0,0,1,27.489,22.241ZM15.641,24.7l-.233,0c-.189,0-.383,0-.575.006V22.067l.437-.006.084,0q.8-.015,1.6-.051v2.645l-.342.016C16.291,24.684,15.969,24.694,15.641,24.7Zm-2.313.007q-.364-.006-.724-.017l-.089,0q-.433-.014-.86-.035V22.009q.8.037,1.6.051l.084,0,.437.006v2.648l-.308,0ZM3.76,23.5l-.051-.015V20.928c.495.133,1.027.255,1.589.366V23.88q-.729-.155-1.343-.323Zm11.166,4.387.437.006v2.648q-1.1-.01-2.119-.061V27.837q.8.037,1.6.051Zm2.018,0q.8-.015,1.6-.051v2.645q-1.02.05-2.119.061V27.894l.437-.006Zm4.246-.239v2.631q-.764.08-1.589.139V27.776C20.137,27.741,20.668,27.7,21.189,27.648Zm1.059-.114q.819-.1,1.589-.224v2.6q-.749.132-1.589.243ZM24.9,27.12c.563-.111,1.094-.233,1.589-.366v2.559c-.472.136-1,.268-1.589.393Zm-18.011,0v2.586c-.586-.124-1.117-.256-1.589-.393V26.754C5.792,26.888,6.324,27.01,6.887,27.12Zm1.059.19q.769.125,1.589.224v2.62q-.84-.11-1.589-.243Zm2.649.337c.521.05,1.052.093,1.589.129v2.642q-.826-.058-1.589-.139ZM9.28,24.48l-.161-.016-.114-.012v-2.63c.521.05,1.052.093,1.589.129v2.64C10.15,24.558,9.71,24.522,9.28,24.48ZM7.946,21.706v2.62q-.84-.11-1.589-.243v-2.6Q7.126,21.607,7.946,21.706Zm10.418,2.858-.353.026V21.949c.537-.035,1.068-.078,1.589-.129v2.631c-.327.034-.662.067-1.006.095Zm2.3-.238v-2.62q.819-.1,1.589-.224v2.6Q21.5,24.215,20.66,24.326Zm2.649-3.033c.563-.111,1.094-.233,1.589-.366v2.559c-.472.136-1,.268-1.589.393Zm-7.244-2.42c-.4-.01-.788-.025-1.17-.044l-.061,0V16.182q.8.037,1.6.051l.084,0,.437.006v2.645c-.258,0-.518,0-.77-.01ZM3.708,11.3V8.744C4.2,8.877,4.735,9,5.3,9.11V11.7l-.2-.041c-.282-.062-.557-.127-.82-.195C4.082,11.408,3.891,11.356,3.708,11.3Zm9.628-1.426.437.006v2.645c-.713-.007-1.422-.025-2.119-.06V9.826q.8.037,1.6.051Zm2.018,0q.8-.015,1.6-.051v2.643l-.267.015h-.023c-.355.016-.718.028-1.085.036l-.172,0c-.189,0-.381,0-.573.006V9.884l.437-.006Zm12.071.266-.015,0-.193.15a5.152,5.152,0,0,1-1.26.651V8.42a7.883,7.883,0,0,0,1.589-.729V9.883A.416.416,0,0,1,27.425,10.142Zm-6.765,2V9.522q.819-.1,1.589-.224v2.6C21.747,11.984,21.218,12.066,20.66,12.139Zm2.649-.448V9.11C23.871,9,24.4,8.877,24.9,8.744V11.3C24.423,11.436,23.888,11.567,23.308,11.691ZM19.6,9.637v2.627q-.768.081-1.589.14V9.765C18.548,9.73,19.079,9.687,19.6,9.637ZM9.006,12.265V9.637c.521.05,1.052.093,1.589.129V12.4C10.055,12.364,9.524,12.32,9.006,12.265ZM7.946,9.522V12.14c-.1-.014-.214-.025-.318-.039l-.2-.029q-.459-.066-.9-.14L6.357,11.9V9.3Q7.126,9.423,7.946,9.522Zm5.7,9.232-.215-.016q-.509-.04-.993-.088l-.208-.021-.042,0V15.993c.521.05,1.052.093,1.589.129v2.64Zm-3.5-.4c-.21-.033-.407-.069-.607-.1v-2.6q.769.125,1.589.224V18.5c-.324-.043-.642-.087-.946-.135ZM8.476,15.466v2.581q-.878-.188-1.589-.4V15.1C7.381,15.234,7.913,15.356,8.476,15.466Zm-2.649-.69v2.517a3.3,3.3,0,0,1-1.545-.942l-.035-.059a.335.335,0,0,1-.009-.05V14.048A7.883,7.883,0,0,0,5.827,14.777Zm12.705,1.456q.8-.015,1.6-.051v2.642c-.7.034-1.4.054-2.119.061V16.241l.437-.006Zm6.846,2.033c-.233.04-.467.08-.708.117-.138.021-.28.041-.422.061s-.273.035-.409.053V15.879q.819-.1,1.589-.224v2.6Zm-3.587.452c-.2.016-.4.027-.6.041V16.122c.537-.035,1.068-.078,1.589-.129v2.628c-.308.032-.615.065-.931.091Zm6.054-.993c-.264.074-.543.142-.828.21-.132.031-.266.061-.4.091l-.126.026V15.467c.563-.111,1.094-.233,1.589-.366V17.66Zm2.874-5.155c-.049.36-.864.838-2.319,1.288h0a35.557,35.557,0,0,1-8.523,1.273c-.19.008-.38.016-.574.022l-.479.014c-.439.01-.884.016-1.342.016s-.9-.007-1.342-.017c-.161,0-.32-.009-.479-.014-.194-.006-.384-.014-.574-.022a35.553,35.553,0,0,1-8.523-1.273h0c-1.444-.446-2.257-.921-2.318-1.279a.124.124,0,0,1,.009-.031l.113.025c.207.049.42.1.636.142,1.053.227,2.219.413,3.462.555l.011,0h0c.847.1,1.725.172,2.626.226.007,0,.013,0,.02,0l.01,0q.973.057,1.972.081c.407.01.807.015,1.2.015.278,0,.563,0,.851-.008a40.565,40.565,0,0,0,9.9-1.226c.114-.032.226-.066.336-.1l.2-.061c.192-.061.376-.124.553-.19l.091-.035c.15-.057.294-.115.432-.175l.119-.052c.147-.066.289-.134.42-.2.059-.031.111-.064.166-.1s.127-.074.186-.111c.033-.021.073-.041.1-.063C30.033,11.788,30.658,12.35,30.719,12.57ZM14.3,4.059c8.735,0,13.153,1.375,13.235,2.165-.064.358-.877.831-2.317,1.276h0A35.557,35.557,0,0,1,16.7,8.774c-.19.008-.38.016-.574.022l-.479.014c-.439.01-.884.017-1.342.017s-.9-.007-1.342-.017c-.161,0-.32-.009-.479-.014-.194-.006-.384-.014-.574-.022A35.553,35.553,0,0,1,3.384,7.5h0c-1.44-.445-2.253-.918-2.317-1.276C1.15,5.435,5.568,4.059,14.3,4.059ZM1.059,9.884V7.691a7.883,7.883,0,0,0,1.589.729v2.536C1.618,10.57,1.061,10.183,1.059,9.884Zm2.566,7.331c.008.008.02.016.028.024a9.012,9.012,0,0,0,4.1,1.736l.132.03q.206.046.417.09a40.855,40.855,0,0,0,6,.761H14.3q1.076.063,2.2.084c.332.007.658.011.977.011.366,0,.741,0,1.122-.013.693-.014,1.376-.043,2.049-.082l.007,0,.013,0a40.971,40.971,0,0,0,6.115-.783,9.6,9.6,0,0,1-1.567.612h0a36.555,36.555,0,0,1-9.154,1.3l-.358.011L15.316,21c-.333.005-.669.01-1.013.01-.459,0-.9-.007-1.342-.017-.161,0-.32-.009-.479-.014-.194-.006-.384-.014-.574-.022a35.553,35.553,0,0,1-8.523-1.273h0c-1.457-.45-2.272-.929-2.319-1.289C1.124,18.2,1.66,17.7,3.626,17.215ZM1.059,22.068V19.875a7.883,7.883,0,0,0,1.589.729V23.13l-.3-.118-.006.006C1.508,22.674,1.061,22.335,1.059,22.068ZM2.649,27.9V25.7a7.883,7.883,0,0,0,1.589.729v2.536C3.208,28.581,2.65,28.194,2.649,27.9Zm24.9,1.072V26.431a7.883,7.883,0,0,0,1.589-.729v2.192C29.135,28.193,28.577,28.58,27.546,28.967Zm1.582-4.737c-.058.359-.871.834-2.318,1.281h0a35.557,35.557,0,0,1-8.523,1.273c-.19.008-.38.016-.574.022l-.479.014c-.439.01-.884.016-1.342.016s-.9-.007-1.343-.017c-.159,0-.317-.009-.474-.014-.2-.006-.386-.014-.577-.022a35.557,35.557,0,0,1-8.523-1.273h0c-1.4-.433-2.211-.893-2.312-1.248.158.055.322.109.489.161l.051.015q.215.066.439.128l.172.047.259.067a38.647,38.647,0,0,0,7.051,1h0c.821.049,1.66.079,2.507.089.226,0,.45.006.67.006.292,0,.591,0,.893-.009.773-.013,1.536-.041,2.282-.086h0l.007,0c.908-.055,1.788-.132,2.633-.229l.009,0c.012,0,.021-.006.033-.007.941-.109,1.833-.242,2.661-.4.171-.031.339-.064.5-.1l.111-.023a14.234,14.234,0,0,0,3.847-1.252c.051-.028.1-.056.147-.084s.115-.07.17-.106.11-.065.156-.1C28.806,23.764,29.094,24.1,29.129,24.23Zm.007-6.917V14.777a7.883,7.883,0,0,0,1.589-.729V16.24C30.724,16.538,30.166,16.926,29.135,17.313Z" transform="translate(979 2638.394)" fill="#e4e4e4"/>
    <path id="Path_77-2" data-name="Path 77" d="M124.292,49.153a9.938,9.938,0,0,0-12.329,14.964.55.55,0,0,0,.868-.676A8.838,8.838,0,0,1,123.8,50.135a.55.55,0,1,0,.5-.982Z" transform="translate(913.807 2545.196)" fill="#e4e4e4"/>
    <path id="Path_78-2" data-name="Path 78" d="M178.286,124.109a.55.55,0,0,0-.982.5A8.838,8.838,0,0,1,164,135.568a.55.55,0,1,0-.675.868,9.938,9.938,0,0,0,14.965-12.327Z" transform="translate(867.33 2474.632)" fill="#e4e4e4"/>
    <path id="Path_79-2" data-name="Path 79" d="M340.439,83.621c-.136-.154-.279-.306-.425-.452s-.3-.289-.452-.425a.55.55,0,0,0-.728.824c.137.121.273.249.4.379s.258.266.379.4a.55.55,0,0,0,.824-.728Z" transform="translate(703.756 2513.025)" fill="#e4e4e4"/>
    <path id="Path_80-2" data-name="Path 80" d="M88.082,14.2a1.866,1.866,0,0,0,0-1.95l-.724-1.186a.774.774,0,0,1-.1-.523l.216-1.37a1.865,1.865,0,0,0-.749-1.806L85.6,6.553a.774.774,0,0,1-.3-.443L84.978,4.76A1.866,1.866,0,0,0,83.6,3.38l-1.35-.327a.774.774,0,0,1-.443-.3l-.816-1.122A1.865,1.865,0,0,0,79.183.887L77.812,1.1A.774.774,0,0,1,77.29,1L76.1.275a1.866,1.866,0,0,0-1.95,0L72.966,1a.774.774,0,0,1-.523.1L71.073.886a1.866,1.866,0,0,0-1.806.749l-.816,1.121a.774.774,0,0,1-.444.3l-1.349.327a1.866,1.866,0,0,0-1.38,1.38l-.327,1.35a.774.774,0,0,1-.3.443l-1.122.816a1.865,1.865,0,0,0-.749,1.806L63,10.545a.774.774,0,0,1-.1.523l-.724,1.187a1.866,1.866,0,0,0,0,1.95l.724,1.187a.774.774,0,0,1,.1.523l-.216,1.37a1.865,1.865,0,0,0,.749,1.806l1.121.816a.774.774,0,0,1,.3.443l.327,1.349a1.866,1.866,0,0,0,1.38,1.38l.564.136-3.814,8.507a.55.55,0,0,0,.567.771l3.069-.367,1.768,2.535a.55.55,0,0,0,.451.235l.052,0a.55.55,0,0,0,.45-.323l3.895-8.689.494.3a1.866,1.866,0,0,0,1.95,0l.511-.312,3.9,8.7a.55.55,0,0,0,.45.323l.052,0a.55.55,0,0,0,.451-.235l1.768-2.535,3.069.367a.55.55,0,0,0,.567-.771l-3.816-8.512.542-.131a1.866,1.866,0,0,0,1.38-1.38l.327-1.35a.774.774,0,0,1,.3-.443l1.122-.816a1.865,1.865,0,0,0,.749-1.806l-.216-1.371a.774.774,0,0,1,.1-.523ZM69.158,33.236l-1.4-2.009A.55.55,0,0,0,67.24,31l-2.432.291,3.475-7.751a.769.769,0,0,1,.167.167l.816,1.122a1.89,1.89,0,0,0,.26.289L67.7,29.193a.55.55,0,1,0,1,.45l1.822-4.065a1.882,1.882,0,0,0,.549,0l1.371-.216a.772.772,0,0,1,.246,0Zm16.312-1.95L83.038,31a.55.55,0,0,0-.516.231l-1.4,2.009-3.533-7.88a.774.774,0,0,1,.224,0l1.37.216a1.884,1.884,0,0,0,.571,0l1.824,4.069a.55.55,0,1,0,1-.45l-1.836-4.1a1.893,1.893,0,0,0,.243-.274L81.8,23.7a.772.772,0,0,1,.185-.18Zm1.674-17.654-.724,1.187a1.876,1.876,0,0,0-.251,1.266l.216,1.371a.77.77,0,0,1-.309.746l-1.122.816a1.875,1.875,0,0,0-.719,1.074l-.327,1.35a.77.77,0,0,1-.57.57l-1.35.327a1.875,1.875,0,0,0-1.074.719L80.1,24.177a.77.77,0,0,1-.746.309l-1.37-.216a1.876,1.876,0,0,0-1.266.251l-1.186.724a.771.771,0,0,1-.805,0l-1.187-.724a1.875,1.875,0,0,0-1.266-.251l-1.371.216a.77.77,0,0,1-.746-.309l-.816-1.122a1.875,1.875,0,0,0-1.074-.719l-1.35-.327a.77.77,0,0,1-.57-.57l-.327-1.349a1.875,1.875,0,0,0-.719-1.074L64.18,18.2a.77.77,0,0,1-.309-.746l.216-1.37a1.875,1.875,0,0,0-.251-1.266l-.724-1.187a.77.77,0,0,1,0-.805l.724-1.187a1.875,1.875,0,0,0,.251-1.266L63.871,9a.77.77,0,0,1,.309-.746L65.3,7.442a1.875,1.875,0,0,0,.719-1.074l.327-1.35a.77.77,0,0,1,.57-.57l1.35-.327A1.875,1.875,0,0,0,69.341,3.4l.816-1.121a.77.77,0,0,1,.746-.309l1.37.216a1.875,1.875,0,0,0,1.266-.251l1.186-.724a.771.771,0,0,1,.805,0l1.187.724a1.874,1.874,0,0,0,1.266.251l1.371-.216a.771.771,0,0,1,.746.309L80.915,3.4a1.875,1.875,0,0,0,1.074.719l1.35.327a.77.77,0,0,1,.57.57l.327,1.349a1.875,1.875,0,0,0,.719,1.074l1.121.816A.77.77,0,0,1,86.384,9l-.216,1.37a1.875,1.875,0,0,0,.251,1.266l.723,1.187A.77.77,0,0,1,87.143,13.632Z" transform="translate(961.643 2590)" fill="#e4e4e4"/>
    <path id="Path_81-2" data-name="Path 81" d="M173.77,105.074a.984.984,0,0,0-.828-.68L169.632,104l-1.4-3.026a.994.994,0,0,0-1.8,0l-1.4,3.026-3.309.392a.994.994,0,0,0-.558,1.716l2.447,2.263-.649,3.268a1,1,0,0,0,.973,1.189.994.994,0,0,0,.487-.128l2.908-1.628,2.908,1.628a.994.994,0,0,0,1.46-1.061l-.649-3.268,2.447-2.263A.984.984,0,0,0,173.77,105.074Zm-3.69,2.7a.55.55,0,0,0-.166.511l.665,3.345-2.976-1.666a.55.55,0,0,0-.537,0l-2.976,1.666.665-3.345a.55.55,0,0,0-.166-.511l-2.5-2.315,3.387-.4a.55.55,0,0,0,.435-.316l1.428-3.1,1.428,3.1a.55.55,0,0,0,.435.316l3.386.4Z" transform="translate(866.804 2496.445)" fill="#e4e4e4"/>
  </g>
</svg>
