<svg xmlns="http://www.w3.org/2000/svg" width="76" height="80" viewBox="0 0 76 80">
  <g id="Group_227" data-name="Group 227" transform="translate(-312 -2535)">
    <g id="Group_193" data-name="Group 193" transform="translate(0 -58)">
      <path id="Path_56" data-name="Path 56" d="M29.085,41.751v7.326a1.348,1.348,0,0,0,1.347,1.347h2.7v4.043a1.348,1.348,0,0,0,1.348,1.347H42.56a1.348,1.348,0,0,0,1.348-1.347V50.425H46.6a1.348,1.348,0,0,0,1.348-1.347V41.751a16.608,16.608,0,0,0,8.085-14.234,17.518,17.518,0,1,0-35.035,0,16.608,16.608,0,0,0,8.085,14.234ZM41.213,53.12h-5.39v-2.7h5.39Zm4.043-5.39H31.78v-2.7H45.255ZM37.17,42.34V34.255h2.7V42.34ZM38.518,12.7A14.84,14.84,0,0,1,53.34,27.518a13.9,13.9,0,0,1-7.411,12.309,1.347,1.347,0,0,0-.674,1.166V42.34h-2.7V34.255h2.7v-2.7H31.78v2.7h2.7V42.34h-2.7V40.993a1.348,1.348,0,0,0-.674-1.166A13.9,13.9,0,0,1,23.7,27.518,14.84,14.84,0,0,1,38.518,12.7Z" transform="translate(314.213 2593.78)" fill="#e4e4e4"/>
      <path id="Path_57" data-name="Path 57" d="M33,6h2.7V8.7H33Z" transform="translate(318.367 2592.39)" fill="#e4e4e4"/>
      <path id="Path_58" data-name="Path 58" d="M0,0H2.7V3.013H0Z" transform="translate(339.28 2601.69) rotate(-26.565)" fill="#e4e4e4"/>
      <path id="Path_59" data-name="Path 59" d="M0,0H3.013V2.7H0Z" transform="translate(361.003 2603.198) rotate(-63.435)" fill="#e4e4e4"/>
      <path id="Path_60" data-name="Path 60" d="M37.128,16.7V14C32.933,14,25,16.535,25,26.128h2.7C27.7,16.853,36.746,16.7,37.128,16.7Z" transform="translate(315.539 2594.97)" fill="#e4e4e4"/>
      <path id="Path_61" data-name="Path 61" d="M25,25h2.7v2.7H25Z" transform="translate(315.508 2598.655)" fill="#e4e4e4"/>
      <path id="Path_62" data-name="Path 62" d="M78.643,82A1.345,1.345,0,0,0,80,80.667V3.333A1.345,1.345,0,0,0,78.643,2H13.5A9.429,9.429,0,0,0,4,11.333v64A6.735,6.735,0,0,0,10.786,82Zm-1.357-8H32.5V71.333H77.286ZM14.857,4.667H77.286v64H14.857ZM29.786,71.333v4.509l-3.465-1.7a1.379,1.379,0,0,0-1.213,0l-3.465,1.7V71.333Zm-23.071-60A6.709,6.709,0,0,1,12.143,4.8V68.667H10.786a6.793,6.793,0,0,0-4.071,1.368Zm0,64a4.036,4.036,0,0,1,4.071-4h8.143V74h-9.5v2.667h9.5V78a1.328,1.328,0,0,0,.64,1.14,1.378,1.378,0,0,0,1.323.06l4.822-2.376L30.536,79.2a1.378,1.378,0,0,0,1.323-.06A1.328,1.328,0,0,0,32.5,78V76.667H77.286v2.667h-66.5A4.036,4.036,0,0,1,6.714,75.333Z" transform="translate(308 2591)" fill="#e4e4e4"/>
      <path id="Path_63" data-name="Path 63" d="M0,0H2.7V3.811H0Z" transform="translate(330.044 2608.622) rotate(-45)" fill="#e4e4e4"/>
      <path id="Path_64" data-name="Path 64" d="M0,0H3.811V2.7H0Z" transform="translate(370.773 2609.415) rotate(-45)" fill="#e4e4e4"/>
      <path id="Path_65" data-name="Path 65" d="M49,22h4.043v2.7H49Z" transform="translate(324.177 2597.657)" fill="#e4e4e4"/>
      <path id="Path_66" data-name="Path 66" d="M15,22h4.043v2.7H15Z" transform="translate(311.935 2597.657)" fill="#e4e4e4"/>
      <path id="Path_67" data-name="Path 67" d="M60.846,56.435l2.7-16.17a1.347,1.347,0,0,0-1.106-1.551l-16.17-2.7a1.348,1.348,0,0,0-1.551,1.106l-2.7,16.17a1.347,1.347,0,0,0,1.106,1.551l16.17,2.7a1.275,1.275,0,0,0,.222.019A1.347,1.347,0,0,0,60.846,56.435ZM58.41,54.661,44.9,52.41,47.15,38.9,60.661,41.15Z" transform="translate(321.745 2602.158)" fill="#e4e4e4"/>
      <path id="Path_68" data-name="Path 68" d="M20.738,45.475A6.738,6.738,0,1,0,14,38.738,6.737,6.737,0,0,0,20.738,45.475Zm0-10.78A4.043,4.043,0,1,1,16.7,38.738,4.043,4.043,0,0,1,20.738,34.7Z" transform="translate(311.592 2600.915)" fill="#e4e4e4"/>
      <path id="Path_69" data-name="Path 69" d="M14,44H26.128v2.7H14Z" transform="translate(311.59 2604.979)" fill="#e4e4e4"/>
      <path id="Path_70" data-name="Path 70" d="M25,44h2.7v2.7H25Z" transform="translate(315.508 2604.979)" fill="#e4e4e4"/>
      <path id="Path_71" data-name="Path 71" d="M14,48h5.39V50.7H14Z" transform="translate(311.579 2606.311)" fill="#e4e4e4"/>
      <path id="Path_72" data-name="Path 72" d="M20,48h9.433V50.7H20Z" transform="translate(313.736 2606.311)" fill="#e4e4e4"/>
      <path id="Path_56-2" data-name="Path 56" d="M29.085,41.751v7.326a1.348,1.348,0,0,0,1.347,1.347h2.7v4.043a1.348,1.348,0,0,0,1.348,1.347H42.56a1.348,1.348,0,0,0,1.348-1.347V50.425H46.6a1.348,1.348,0,0,0,1.348-1.347V41.751a16.608,16.608,0,0,0,8.085-14.234,17.518,17.518,0,1,0-35.035,0,16.608,16.608,0,0,0,8.085,14.234ZM41.213,53.12h-5.39v-2.7h5.39Zm4.043-5.39H31.78v-2.7H45.255ZM37.17,42.34V34.255h2.7V42.34ZM38.518,12.7A14.84,14.84,0,0,1,53.34,27.518a13.9,13.9,0,0,1-7.411,12.309,1.347,1.347,0,0,0-.674,1.166V42.34h-2.7V34.255h2.7v-2.7H31.78v2.7h2.7V42.34h-2.7V40.993a1.348,1.348,0,0,0-.674-1.166A13.9,13.9,0,0,1,23.7,27.518,14.84,14.84,0,0,1,38.518,12.7Z" transform="translate(314.213 2593.78)" fill="#e4e4e4"/>
      <path id="Path_57-2" data-name="Path 57" d="M33,6h2.7V8.7H33Z" transform="translate(318.367 2592.39)" fill="#e4e4e4"/>
      <path id="Path_58-2" data-name="Path 58" d="M0,0H2.7V3.013H0Z" transform="translate(339.28 2601.69) rotate(-26.565)" fill="#e4e4e4"/>
      <path id="Path_59-2" data-name="Path 59" d="M0,0H3.013V2.7H0Z" transform="translate(361.003 2603.198) rotate(-63.435)" fill="#e4e4e4"/>
      <path id="Path_60-2" data-name="Path 60" d="M37.128,16.7V14C32.933,14,25,16.535,25,26.128h2.7C27.7,16.853,36.746,16.7,37.128,16.7Z" transform="translate(315.539 2594.97)" fill="#e4e4e4"/>
      <path id="Path_61-2" data-name="Path 61" d="M25,25h2.7v2.7H25Z" transform="translate(315.508 2598.655)" fill="#e4e4e4"/>
      <path id="Path_62-2" data-name="Path 62" d="M78.643,82A1.345,1.345,0,0,0,80,80.667V3.333A1.345,1.345,0,0,0,78.643,2H13.5A9.429,9.429,0,0,0,4,11.333v64A6.735,6.735,0,0,0,10.786,82Zm-1.357-8H32.5V71.333H77.286ZM14.857,4.667H77.286v64H14.857ZM29.786,71.333v4.509l-3.465-1.7a1.379,1.379,0,0,0-1.213,0l-3.465,1.7V71.333Zm-23.071-60A6.709,6.709,0,0,1,12.143,4.8V68.667H10.786a6.793,6.793,0,0,0-4.071,1.368Zm0,64a4.036,4.036,0,0,1,4.071-4h8.143V74h-9.5v2.667h9.5V78a1.328,1.328,0,0,0,.64,1.14,1.378,1.378,0,0,0,1.323.06l4.822-2.376L30.536,79.2a1.378,1.378,0,0,0,1.323-.06A1.328,1.328,0,0,0,32.5,78V76.667H77.286v2.667h-66.5A4.036,4.036,0,0,1,6.714,75.333Z" transform="translate(308 2591)" fill="#e4e4e4"/>
      <path id="Path_63-2" data-name="Path 63" d="M0,0H2.7V3.811H0Z" transform="translate(330.044 2608.622) rotate(-45)" fill="#e4e4e4"/>
      <path id="Path_64-2" data-name="Path 64" d="M0,0H3.811V2.7H0Z" transform="translate(370.773 2609.415) rotate(-45)" fill="#e4e4e4"/>
      <path id="Path_65-2" data-name="Path 65" d="M49,22h4.043v2.7H49Z" transform="translate(324.177 2597.657)" fill="#e4e4e4"/>
      <path id="Path_66-2" data-name="Path 66" d="M15,22h4.043v2.7H15Z" transform="translate(311.935 2597.657)" fill="#e4e4e4"/>
      <path id="Path_67-2" data-name="Path 67" d="M60.846,56.435l2.7-16.17a1.347,1.347,0,0,0-1.106-1.551l-16.17-2.7a1.348,1.348,0,0,0-1.551,1.106l-2.7,16.17a1.347,1.347,0,0,0,1.106,1.551l16.17,2.7a1.275,1.275,0,0,0,.222.019A1.347,1.347,0,0,0,60.846,56.435ZM58.41,54.661,44.9,52.41,47.15,38.9,60.661,41.15Z" transform="translate(321.745 2602.158)" fill="#e4e4e4"/>
      <path id="Path_68-2" data-name="Path 68" d="M20.738,45.475A6.738,6.738,0,1,0,14,38.738,6.737,6.737,0,0,0,20.738,45.475Zm0-10.78A4.043,4.043,0,1,1,16.7,38.738,4.043,4.043,0,0,1,20.738,34.7Z" transform="translate(311.592 2600.915)" fill="#e4e4e4"/>
      <path id="Path_69-2" data-name="Path 69" d="M14,44H26.128v2.7H14Z" transform="translate(311.59 2604.979)" fill="#e4e4e4"/>
      <path id="Path_70-2" data-name="Path 70" d="M25,44h2.7v2.7H25Z" transform="translate(315.508 2604.979)" fill="#e4e4e4"/>
      <path id="Path_71-2" data-name="Path 71" d="M14,48h5.39V50.7H14Z" transform="translate(311.579 2606.311)" fill="#e4e4e4"/>
      <path id="Path_72-2" data-name="Path 72" d="M20,48h9.433V50.7H20Z" transform="translate(313.736 2606.311)" fill="#e4e4e4"/>
    </g>
  </g>
</svg>
