<svg xmlns="http://www.w3.org/2000/svg" width="11.821" height="11.305" viewBox="0 0 11.821 11.305">
  <path id="star_1_" data-name="star (1)" d="M6.482,1.4,7.815,4.1a.636.636,0,0,0,.479.348l2.981.433a.637.637,0,0,1,.353,1.086l-2.157,2.1a.637.637,0,0,0-.183.563L9.8,11.606a.637.637,0,0,1-.924.671l-2.667-1.4a.637.637,0,0,0-.593,0l-2.667,1.4a.637.637,0,0,1-.924-.671l.509-2.969a.637.637,0,0,0-.183-.563L.194,5.97A.636.636,0,0,1,.546,4.885l2.981-.433A.636.636,0,0,0,4.007,4.1L5.34,1.4A.636.636,0,0,1,6.482,1.4Z" transform="translate(0 -1.047)" fill="#1c6a7e"/>
</svg>
