<svg id="Group_192" data-name="Group 192" xmlns="http://www.w3.org/2000/svg" width="40.428" height="40.428" viewBox="0 0 40.428 40.428">
  <circle id="Ellipse_4" data-name="Ellipse 4" cx="20.214" cy="20.214" r="20.214" fill="#dbd0d0" opacity="0.77"/>
  <g id="Group_67" data-name="Group 67" transform="translate(10.455 11)">
    <path id="Path_52" data-name="Path 52" d="M19.551,15.312l-3.089-2.92a1.677,1.677,0,0,0-2.271.04L12.636,13.9l-.307-.161a15.5,15.5,0,0,1-3.743-2.559A14.762,14.762,0,0,1,5.873,7.639c-.058-.1-.113-.193-.167-.284L6.75,6.37l.513-.486a1.463,1.463,0,0,0,.041-2.146L4.217.817a1.676,1.676,0,0,0-2.271.04l-.87.828.024.022A4.7,4.7,0,0,0,.063,4.117c-.408,3.2,1.137,6.117,5.33,10.08,5.8,5.478,10.467,5.064,10.668,5.044a5.467,5.467,0,0,0,1.287-.306,5.1,5.1,0,0,0,1.261-.675l.019.016.882-.816A1.465,1.465,0,0,0,19.551,15.312Z" transform="translate(0 -0.394)" fill="#fff"/>
  </g>
</svg>
