<svg xmlns="http://www.w3.org/2000/svg" width="21" height="21" viewBox="0 0 21 21">
  <g id="Group_202" data-name="Group 202" transform="translate(-59.501)">
    <circle id="Ellipse_4" data-name="Ellipse 4" cx="10.5" cy="10.5" r="10.5" transform="translate(59.501)" fill="#dbd0d0" opacity="0.77"/>
    <path id="Path_15" data-name="Path 15" d="M10.562,58.417a4.46,4.46,0,0,1-1.244.328,2.109,2.109,0,0,0,.952-1.152,4.473,4.473,0,0,1-1.377.506,2.2,2.2,0,0,0-1.581-.658,2.127,2.127,0,0,0-2.166,2.084A2.014,2.014,0,0,0,5.2,60,6.234,6.234,0,0,1,.737,57.822a2.009,2.009,0,0,0-.293,1.048A2.064,2.064,0,0,0,1.407,60.6a2.232,2.232,0,0,1-.981-.262v.026a2.108,2.108,0,0,0,1.738,2.044,2.275,2.275,0,0,1-.571.073,2.159,2.159,0,0,1-.408-.039,2.159,2.159,0,0,0,2.023,1.447,4.457,4.457,0,0,1-2.69.891A4.782,4.782,0,0,1,0,64.756a6.3,6.3,0,0,0,3.321.938,6,6,0,0,0,6.164-5.93l-.007-.27A4.24,4.24,0,0,0,10.562,58.417Z" transform="translate(64.931 -51.208)" fill="#7b7171"/>
  </g>
</svg>
